<?xml version="1.0" encoding="UTF-8" standalone="no"?>
<svg width="512" height="512" viewBox="0 0 512 512" fill="none" xmlns="http://www.w3.org/2000/svg">
  <!-- Background circle -->
  <circle cx="256" cy="256" r="256" fill="#3b82f6"/>
  
  <!-- Musical note with tail -->
  <path d="M352 128L352 288C352 305.673 337.673 320 320 320C302.327 320 288 305.673 288 288C288 270.327 302.327 256 320 256C324.415 256 328.631 256.939 332.393 258.607L332.393 161.607L193.607 186.393L193.607 314.393C193.607 332.066 179.28 346.393 161.607 346.393C143.934 346.393 129.607 332.066 129.607 314.393C129.607 296.72 143.934 282.393 161.607 282.393C166.022 282.393 170.238 283.332 174 285L174 128L352 128Z" fill="white"/>

  <!-- Sound waves -->
  <path d="M384 192C384 179.85 394.85 170 406 170C416.15 170 426 179.85 426 192C426 204.15 416.15 214 406 214C394.85 214 384 204.15 384 192Z" fill="white"/>
  <path d="M384 256C384 243.85 394.85 234 406 234C416.15 234 426 243.85 426 256C426 268.15 416.15 278 406 278C394.85 278 384 268.15 384 256Z" fill="white"/>
  <path d="M384 320C384 307.85 394.85 298 406 298C416.15 298 426 307.85 426 320C426 332.15 416.15 342 406 342C394.85 342 384 332.15 384 320Z" fill="white"/>
  
  <!-- Small sound waves on the left -->
  <path d="M96 224C96 211.85 86.15 202 75 202C64.85 202 54 211.85 54 224C54 236.15 64.85 246 75 246C86.15 246 96 236.15 96 224Z" fill="white"/>
  <path d="M96 288C96 275.85 86.15 266 75 266C64.85 266 54 275.85 54 288C54 300.15 64.85 310 75 310C86.15 310 96 300.15 96 288Z" fill="white"/>
</svg>